<svg width="17" height="14" viewBox="0 0 17 14" fill="none" xmlns="http://www.w3.org/2000/svg">
<path d="M3.54167 11.0833H4.55104L11.475 5.38125L10.4656 4.55L3.54167 10.2521V11.0833ZM2.125 12.25V9.77083L11.475 2.08542C11.6167 1.97847 11.7731 1.89583 11.9443 1.8375C12.1155 1.77917 12.2955 1.75 12.4844 1.75C12.6733 1.75 12.8562 1.77917 13.0333 1.8375C13.2104 1.89583 13.3639 1.98333 13.4938 2.1L14.4677 2.91667C14.6094 3.02361 14.7127 3.15 14.7776 3.29583C14.8425 3.44167 14.875 3.5875 14.875 3.73333C14.875 3.88889 14.8425 4.03715 14.7776 4.17812C14.7127 4.3191 14.6094 4.44792 14.4677 4.56458L5.13542 12.25H2.125ZM10.9615 4.97292L10.4656 4.55L11.475 5.38125L10.9615 4.97292Z" fill="#1368A4"/>
</svg>
