<svg width="20" height="18" viewBox="0 0 20 18" fill="none" xmlns="http://www.w3.org/2000/svg">
<path d="M3.33341 15C2.87508 15 2.47925 14.8562 2.14591 14.5688C1.82647 14.2688 1.66675 13.9125 1.66675 13.5V4.5C1.66675 4.0875 1.82647 3.7375 2.14591 3.45C2.47925 3.15 2.87508 3 3.33341 3H16.6667C17.1251 3 17.514 3.15 17.8334 3.45C18.1667 3.7375 18.3334 4.0875 18.3334 4.5V13.5C18.3334 13.9125 18.1667 14.2688 17.8334 14.5688C17.514 14.8562 17.1251 15 16.6667 15H3.33341ZM10.0001 9.75L16.6667 6V4.5L10.0001 8.25L3.33341 4.5V6L10.0001 9.75Z" fill="#1368A4"/>
</svg>
