<svg width="60" height="64" viewBox="0 0 60 64" fill="none" xmlns="http://www.w3.org/2000/svg">
<rect width="60" height="64" fill="white"/>
<rect width="60" height="64" fill="#E8F1FD"/>
<path d="M30 32.0001C27.25 32.0001 24.8958 30.9556 22.9375 28.8667C20.9792 26.7779 20 24.2667 20 21.3334C20 18.4001 20.9792 15.889 22.9375 13.8001C24.8958 11.7112 27.25 10.6667 30 10.6667C32.75 10.6667 35.1042 11.7112 37.0625 13.8001C39.0208 15.889 40 18.4001 40 21.3334C40 24.2667 39.0208 26.7779 37.0625 28.8667C35.1042 30.9556 32.75 32.0001 30 32.0001ZM10 53.3334V45.8667C10 44.3556 10.3646 42.9667 11.0938 41.7001C11.8229 40.4334 12.7917 39.4667 14 38.8001C16.5833 37.4223 19.2083 36.389 21.875 35.7001C24.5417 35.0112 27.25 34.6667 30 34.6667C32.75 34.6667 35.4583 35.0112 38.125 35.7001C40.7917 36.389 43.4167 37.4223 46 38.8001C47.2083 39.4667 48.1771 40.4334 48.9062 41.7001C49.6354 42.9667 50 44.3556 50 45.8667V53.3334H10ZM15 48.0001H45V45.8667C45 45.3779 44.8854 44.9334 44.6562 44.5334C44.4271 44.1334 44.125 43.8223 43.75 43.6001C41.5 42.4001 39.2292 41.5001 36.9375 40.9001C34.6458 40.3001 32.3333 40.0001 30 40.0001C27.6667 40.0001 25.3542 40.3001 23.0625 40.9001C20.7708 41.5001 18.5 42.4001 16.25 43.6001C15.875 43.8223 15.5729 44.1334 15.3438 44.5334C15.1146 44.9334 15 45.3779 15 45.8667V48.0001ZM30 26.6667C31.375 26.6667 32.5521 26.1445 33.5312 25.1001C34.5104 24.0556 35 22.8001 35 21.3334C35 19.8667 34.5104 18.6112 33.5312 17.5667C32.5521 16.5223 31.375 16.0001 30 16.0001C28.625 16.0001 27.4479 16.5223 26.4688 17.5667C25.4896 18.6112 25 19.8667 25 21.3334C25 22.8001 25.4896 24.0556 26.4688 25.1001C27.4479 26.1445 28.625 26.6667 30 26.6667Z" fill="#2D42C0"/>
</svg>
