<svg width="290" height="36" viewBox="0 0 290 36" fill="none" xmlns="http://www.w3.org/2000/svg">
<path d="M0 5C0 2.23858 2.23858 0 5 0H285C287.761 0 290 2.23858 290 5V31C290 33.7614 287.761 36 285 36H4.99999C2.23857 36 0 33.7614 0 31V5Z" fill="#EFE4E4"/>
<path d="M0 5C0 2.23858 2.23858 0 5 0H285C287.761 0 290 2.23858 290 5V31C290 33.7614 287.761 36 285 36H4.99999C2.23857 36 0 33.7614 0 31V5Z" fill="#757575"/>
<path d="M0 5C0 2.23858 2.23858 0 5 0H285C287.761 0 290 2.23858 290 5V31C290 33.7614 287.761 36 285 36H4.99999C2.23857 36 0 33.7614 0 31V5Z" fill="#8F93A7"/>
<path d="M0 5C0 2.23858 2.23858 0 5 0H285C287.761 0 290 2.23858 290 5V31C290 33.7614 287.761 36 285 36H4.99999C2.23857 36 0 33.7614 0 31V5Z" fill="#55848C"/>
</svg>
