<svg width="400" height="72" viewBox="0 0 400 72" fill="none" xmlns="http://www.w3.org/2000/svg">
<path d="M0 5C0 2.23857 2.23858 0 5 0H395C397.761 0 400 2.23858 400 5V67C400 69.7614 397.761 72 395 72H5C2.23857 72 0 69.7614 0 67V5Z" fill="#EFE4E4"/>
<path d="M0 5C0 2.23857 2.23858 0 5 0H395C397.761 0 400 2.23858 400 5V67C400 69.7614 397.761 72 395 72H5C2.23857 72 0 69.7614 0 67V5Z" fill="#757575"/>
<path d="M0 5C0 2.23857 2.23858 0 5 0H395C397.761 0 400 2.23858 400 5V67C400 69.7614 397.761 72 395 72H5C2.23857 72 0 69.7614 0 67V5Z" fill="#8F93A7"/>
<path d="M0 5C0 2.23857 2.23858 0 5 0H395C397.761 0 400 2.23858 400 5V67C400 69.7614 397.761 72 395 72H5C2.23857 72 0 69.7614 0 67V5Z" fill="#55848C"/>
</svg>
