<svg width="249" height="41" viewBox="0 0 249 41" fill="none" xmlns="http://www.w3.org/2000/svg">
<path d="M0 5C0 2.23858 2.23858 0 5 0H244C246.761 0 249 2.23858 249 5V36C249 38.7614 246.761 41 244 41H5C2.23858 41 0 38.7614 0 36V5Z" fill="#EFE4E4"/>
<path d="M0 5C0 2.23858 2.23858 0 5 0H244C246.761 0 249 2.23858 249 5V36C249 38.7614 246.761 41 244 41H5C2.23858 41 0 38.7614 0 36V5Z" fill="#757575"/>
<path d="M0 5C0 2.23858 2.23858 0 5 0H244C246.761 0 249 2.23858 249 5V36C249 38.7614 246.761 41 244 41H5C2.23858 41 0 38.7614 0 36V5Z" fill="#8F93A7"/>
<path d="M0 5C0 2.23858 2.23858 0 5 0H244C246.761 0 249 2.23858 249 5V36C249 38.7614 246.761 41 244 41H5C2.23858 41 0 38.7614 0 36V5Z" fill="#55848C"/>
</svg>
