<svg width="244" height="47" viewBox="0 0 244 47" fill="none" xmlns="http://www.w3.org/2000/svg">
<path d="M10 0.5H234C239.247 0.5 243.5 4.7533 243.5 10V37C243.5 42.2467 239.247 46.5 234 46.5H10C4.7533 46.5 0.5 42.2467 0.5 37V10C0.5 4.75329 4.75329 0.5 10 0.5Z" fill="#EFE4E4"/>
<path d="M10 0.5H234C239.247 0.5 243.5 4.7533 243.5 10V37C243.5 42.2467 239.247 46.5 234 46.5H10C4.7533 46.5 0.5 42.2467 0.5 37V10C0.5 4.75329 4.75329 0.5 10 0.5Z" fill="#8F93A7"/>
<path d="M10 0.5H234C239.247 0.5 243.5 4.7533 243.5 10V37C243.5 42.2467 239.247 46.5 234 46.5H10C4.7533 46.5 0.5 42.2467 0.5 37V10C0.5 4.75329 4.75329 0.5 10 0.5Z" fill="#55848C"/>
<path d="M10 0.5H234C239.247 0.5 243.5 4.7533 243.5 10V37C243.5 42.2467 239.247 46.5 234 46.5H10C4.7533 46.5 0.5 42.2467 0.5 37V10C0.5 4.75329 4.75329 0.5 10 0.5Z" stroke="#1368A4"/>
</svg>
