<svg width="400" height="61" viewBox="0 0 400 61" fill="none" xmlns="http://www.w3.org/2000/svg">
<path d="M0 5C0 2.23858 2.23858 0 5 0H395C397.761 0 400 2.23858 400 5V56C400 58.7614 397.761 61 395 61H210.782H5C2.23857 61 0 58.7614 0 56V5Z" fill="#EFE4E4"/>
<path d="M0 5C0 2.23858 2.23858 0 5 0H395C397.761 0 400 2.23858 400 5V56C400 58.7614 397.761 61 395 61H210.782H5C2.23857 61 0 58.7614 0 56V5Z" fill="#757575"/>
<path d="M0 5C0 2.23858 2.23858 0 5 0H395C397.761 0 400 2.23858 400 5V56C400 58.7614 397.761 61 395 61H210.782H5C2.23857 61 0 58.7614 0 56V5Z" fill="#A5ACD1" fill-opacity="0.54"/>
<path d="M0 5C0 2.23858 2.23858 0 5 0H395C397.761 0 400 2.23858 400 5V56C400 58.7614 397.761 61 395 61H210.782H5C2.23857 61 0 58.7614 0 56V5Z" fill="#55848C"/>
</svg>
